<svg xmlns="http://www.w3.org/2000/svg" width="42.821" height="50.303" viewBox="0 0 42.821 50.303">
    <path id="prefix__Path_7" d="M1166.641-685.951h-8.43v-3.338a10.305 10.305 0 0 0-10.228-10.357 10.305 10.305 0 0 0-10.228 10.357v3.338h-8.43a2.751 2.751 0 0 0-2.752 2.743v27.408a6.456 6.456 0 0 0 6.444 6.453h29.933a6.456 6.456 0 0 0 6.444-6.453v-27.412a2.751 2.751 0 0 0-2.753-2.739zm-26.134 11.421a2.755 2.755 0 0 0 2.752-2.752v-3.164h9.448v3.164a2.755 2.755 0 0 0 2.752 2.752 2.755 2.755 0 0 0 2.752-2.752v-3.164h5.678v24.65a.945.945 0 0 1-.939.949h-29.933a.945.945 0 0 1-.94-.949v-24.65h5.678v3.164a2.755 2.755 0 0 0 2.752 2.752zm2.752-11.421v-3.338a4.8 4.8 0 0 1 4.724-4.853 4.8 4.8 0 0 1 4.724 4.853v3.338z" data-name="Path 7" transform="translate(-1126.572 699.646)" style="fill:#fff"/>
</svg>
