<svg xmlns="http://www.w3.org/2000/svg" width="78.184" height="78.184" data-name="Group 83" viewBox="0 0 78.184 78.184">
    <path d="M68.411 78.183H9.773A9.772 9.772 0 0 1 0 68.415V16.288a9.772 9.772 0 0 1 9.773-9.773h58.638a9.772 9.772 0 0 1 9.773 9.773v52.127a9.772 9.772 0 0 1-9.773 9.768zM9.773 13.03a3.259 3.259 0 0 0-3.258 3.258v52.127a3.259 3.259 0 0 0 3.258 3.258h58.638a3.259 3.259 0 0 0 3.257-3.258V16.288a3.259 3.259 0 0 0-3.258-3.258z" data-name="Path 74"/>
    <path d="M22.804 13.031a3.259 3.259 0 0 1-3.258-3.258V3.258a3.258 3.258 0 0 1 6.515 0v6.515a3.259 3.259 0 0 1-3.257 3.258z" data-name="Path 75"/>
    <path d="M22.804 16.288a3.259 3.259 0 0 1-3.258-3.258V9.773a3.258 3.258 0 0 1 6.515 0v3.257a3.259 3.259 0 0 1-3.257 3.258z" data-name="Path 76"/>
    <path d="M55.38 9.773a3.259 3.259 0 0 1-3.258-3.258V3.258a3.258 3.258 0 1 1 6.515 0v3.257a3.259 3.259 0 0 1-3.257 3.258z" data-name="Path 77"/>
    <path d="M55.38 16.288a3.259 3.259 0 0 1-3.258-3.258V9.773a3.258 3.258 0 1 1 6.515 0v3.257a3.259 3.259 0 0 1-3.257 3.258z" data-name="Path 78"/>
    <path d="M71.669 32.576H6.516a3.258 3.258 0 1 1 0-6.515h65.153a3.258 3.258 0 1 1 0 6.515z" data-name="Path 79"/>
    <path d="M34.205 65.153a3.249 3.249 0 0 1-2.3-.954l-9.776-9.774a3.258 3.258 0 1 1 4.525-4.688l.081.081 7.47 7.47 17.242-17.242a3.258 3.258 0 0 1 4.606 4.606L36.508 64.198a3.249 3.249 0 0 1-2.303.955z" data-name="Path 80"/>
</svg>
