<svg xmlns="http://www.w3.org/2000/svg" width="80.358" height="72.016" viewBox="0 0 80.358 72.016">
    <g data-name="Group 84">
        <path d="M21.382 0A20.877 20.877 0 0 0 6.224 6.5a22.8 22.8 0 0 0 0 31.314l31.7 33.244a3.089 3.089 0 0 0 4.368.105q.054-.051.105-.105L74.13 37.846a22.792 22.792 0 0 0 0-31.313 20.883 20.883 0 0 0-30.316 0l-3.636 3.765-3.636-3.8A20.876 20.876 0 0 0 21.382 0zm0 6.05a14.808 14.808 0 0 1 10.716 4.731l5.858 6.146a3.09 3.09 0 0 0 4.369.105q.053-.051.105-.105l5.825-6.114a14.485 14.485 0 0 1 21.4 0 16.638 16.638 0 0 1 0 22.785q-14.74 15.423-29.478 30.831L10.698 33.565a16.643 16.643 0 0 1 0-22.785 14.742 14.742 0 0 1 10.684-4.73z" data-name="Path 8"/>
    </g>
</svg>
