<svg xmlns="http://www.w3.org/2000/svg" id="prefix__Group_30" width="50.25" height="50.25" data-name="Group 30" viewBox="0 0 50.25 50.25">
    <defs>
        <style>
            .prefix__cls-1{fill:#fff}
        </style>
    </defs>
    <path id="prefix__Path_17" d="M917.618 152.809a4.809 4.809 0 1 1-4.809-4.809 4.809 4.809 0 0 1 4.809 4.809z" class="prefix__cls-1" data-name="Path 17" transform="translate(-887.684 -127.684)"/>
    <path id="prefix__Path_18" d="M859.559 79.807a4.777 4.777 0 0 0-2.738-2.738 7.984 7.984 0 0 0-2.679-.5c-1.522-.069-1.978-.084-5.83-.084s-4.309.015-5.83.084a7.987 7.987 0 0 0-2.679.5 4.779 4.779 0 0 0-2.739 2.738 7.986 7.986 0 0 0-.5 2.679c-.069 1.521-.084 1.977-.084 5.83s.015 4.308.084 5.83a7.983 7.983 0 0 0 .5 2.679 4.777 4.777 0 0 0 2.738 2.738 7.973 7.973 0 0 0 2.679.5c1.521.069 1.977.084 5.829.084s4.309-.015 5.83-.084a7.974 7.974 0 0 0 2.679-.5 4.778 4.778 0 0 0 2.738-2.738 7.992 7.992 0 0 0 .5-2.679c.069-1.522.084-1.978.084-5.83s-.015-4.309-.084-5.83a7.973 7.973 0 0 0-.498-2.679zm-11.247 15.917a7.408 7.408 0 1 1 7.408-7.408 7.408 7.408 0 0 1-7.408 7.408zm7.7-13.378a1.731 1.731 0 1 1 1.731-1.731 1.731 1.731 0 0 1-1.73 1.731z" class="prefix__cls-1" data-name="Path 18" transform="translate(-823.187 -63.191)"/>
    <path id="prefix__Path_19" d="M726.125-59A25.128 25.128 0 0 0 701-33.875 25.128 25.128 0 0 0 726.125-8.75a25.128 25.128 0 0 0 25.125-25.125A25.128 25.128 0 0 0 726.125-59zm14.34 31.073a10.583 10.583 0 0 1-.671 3.5 7.376 7.376 0 0 1-4.219 4.219 10.592 10.592 0 0 1-3.5.671c-1.538.07-2.03.087-5.948.087s-4.41-.017-5.948-.087a10.592 10.592 0 0 1-3.5-.671 7.068 7.068 0 0 1-2.556-1.664 7.07 7.07 0 0 1-1.664-2.555 10.581 10.581 0 0 1-.671-3.5c-.071-1.539-.087-2.03-.087-5.948s.016-4.41.087-5.948a10.585 10.585 0 0 1 .67-3.5 7.066 7.066 0 0 1 1.665-2.555 7.065 7.065 0 0 1 2.555-1.664 10.594 10.594 0 0 1 3.5-.671c1.538-.07 2.03-.087 5.948-.087s4.41.017 5.948.087a10.6 10.6 0 0 1 3.5.67 7.071 7.071 0 0 1 2.556 1.665 7.066 7.066 0 0 1 1.664 2.555 10.584 10.584 0 0 1 .671 3.5c.07 1.538.087 2.03.087 5.948s-.016 4.409-.087 5.948z" class="prefix__cls-1" data-name="Path 19" transform="translate(-701 59)"/>
</svg>
