<svg xmlns="http://www.w3.org/2000/svg" width="245.266" height="108.366" viewBox="0 0 245.266 108.366">
    <path id="prefix__Logo_Lunettes" d="M460.251 255.371c-.288 0-.591-.013-.907-.039s-.623-.038-.908-.038l.015.079c-.752-.053-1.485-.077-2.2-.076a9.234 9.234 0 0 0-1.974.2 5.2 5.2 0 0 0-1.66.672 3.8 3.8 0 0 0-1.269 1.338c-.758 1.053-1.608 2.116-2.319 3.247s-1.432 2.3-2.154 3.506c-1.156 1.891-2.626 3.769-3.935 5.739-.076.112-.142.227-.217.341-.4.556-.854 1.209-1.37 1.987q-1.314 1.97-3 4.215a56.965 56.965 0 0 1-3.681 4.415 20.689 20.689 0 0 1-4.124 3.51 14.075 14.075 0 0 1-2.31 1.262 9.506 9.506 0 0 1-2.88.791 4.892 4.892 0 0 1-2.7-.43 3.875 3.875 0 0 1-1.857-2.4 8.149 8.149 0 0 1-.425-2.715 10.421 10.421 0 0 1 .362-2.639 12.671 12.671 0 0 0 .381-2.127 3.322 3.322 0 0 1 .682-1.89 2.142 2.142 0 0 1 1.655-.713 15.818 15.818 0 0 0 2.007-.238q1.46-.4 2.783-.83t2.667-.986a36.169 36.169 0 0 0 4.736-2.606 16.431 16.431 0 0 0 3.944-3.55 11.772 11.772 0 0 0 1.3-1.812 7.752 7.752 0 0 0 .877-2.207 6.545 6.545 0 0 0 .109-2.4 4.3 4.3 0 0 0-1.155-2.322 4.437 4.437 0 0 0-3.163-1.65 12.434 12.434 0 0 0-3.477.161 23.609 23.609 0 0 0-4.75 1.265 20.191 20.191 0 0 0-4.217 2.211 28.352 28.352 0 0 0-7 5.994 25.811 25.811 0 0 0-4.473 7.879 28.119 28.119 0 0 0-1.074 3.349 18.15 18.15 0 0 0-.538 3.661 14.3 14.3 0 0 0 .271 3.323c-.547.631-1.081 1.208-1.6 1.718a7.12 7.12 0 0 1-2.471 1.737 4.362 4.362 0 0 1-3.408-.114 2.529 2.529 0 0 1-1.381-2.794 37.863 37.863 0 0 1 1.825-7.641q1.416-4.172 3.294-8.626t4.038-8.828q2.149-4.372 4.118-8.155l7.277-.008-.563-2.757-5.648.009q1.929-3.548 3.218-6.266t2.043-4.686a24.706 24.706 0 0 0 1.065-3.387 17.1 17.1 0 0 0 .375-2.364c.072-.209-.39-.364-1.38-.469a31.183 31.183 0 0 0-3.286-.155 27.805 27.805 0 0 0-3.05.163 5.5 5.5 0 0 0-1.957.473 2.1 2.1 0 0 0-.423.869 10.17 10.17 0 0 0-.219 1.024.421.421 0 0 1-.03.275.415.415 0 0 0-.031.275 14.524 14.524 0 0 1-.918 3.9q-.774 2.088-1.5 3.978l-.016-.078-.621 1.576-2.685 4.888-8.217.011-5.649.006q1.93-3.548 3.219-6.265t2.04-4.687a24.468 24.468 0 0 0 1.068-3.388 17.516 17.516 0 0 0 .375-2.362q.1-.314-1.383-.471a31.318 31.318 0 0 0-3.283-.155 27.859 27.859 0 0 0-3.052.162 5.483 5.483 0 0 0-1.958.473 2.107 2.107 0 0 0-.422.869 10.421 10.421 0 0 0-.22 1.024.425.425 0 0 1-.03.276.4.4 0 0 0-.029.274 14.578 14.578 0 0 1-.919 3.9q-.775 2.089-1.5 3.979l-.016-.078-.62 1.576-2.687 4.886-7.275.008.559 2.756 5.738-.009-3.1 6.619q-3.212 6.936-5.3 11.622c-.151.335-.28.643-.421.966l-.019.019q-.819 1.026-2.127 3t-2.995 4.218a56.256 56.256 0 0 1-3.682 4.413 20.581 20.581 0 0 1-4.122 3.511 14.041 14.041 0 0 1-2.313 1.262 9.5 9.5 0 0 1-2.879.79 4.883 4.883 0 0 1-2.7-.428 3.878 3.878 0 0 1-1.861-2.4 8.215 8.215 0 0 1-.423-2.717 10.435 10.435 0 0 1 .363-2.636 12.545 12.545 0 0 0 .38-2.127 3.294 3.294 0 0 1 .683-1.89 2.127 2.127 0 0 1 1.654-.712 16.66 16.66 0 0 0 2.006-.24q1.46-.393 2.786-.829t2.665-.988a35.99 35.99 0 0 0 4.735-2.607 16.427 16.427 0 0 0 3.943-3.546 11.782 11.782 0 0 0 1.3-1.813 7.656 7.656 0 0 0 .877-2.207 6.639 6.639 0 0 0 .111-2.4 4.309 4.309 0 0 0-1.159-2.322 4.441 4.441 0 0 0-3.164-1.649 12.535 12.535 0 0 0-3.476.16 23.9 23.9 0 0 0-4.75 1.267 20.221 20.221 0 0 0-4.217 2.211 28.388 28.388 0 0 0-7 5.992 25.808 25.808 0 0 0-4.473 7.882 28.014 28.014 0 0 0-1.073 3.348 18 18 0 0 0-.537 3.661c-.017.365.012.732.026 1.1-.072.106-.135.215-.207.319a16.534 16.534 0 0 1-3.13 3.349 11.04 11.04 0 0 1-4.41 2.093q-1.251.161-1.631-.431a2.121 2.121 0 0 1-.286-1.417 5.762 5.762 0 0 1 .433-1.654c.23-.551.4-.986.5-1.3q.9-2.289 1.929-4.413t2.13-4.255q1.231-2.363 2.764-4.923a13.971 13.971 0 0 0 1.912-5.321 11.36 11.36 0 0 0-.517-4.013 4.955 4.955 0 0 0-3.149-3.068 7.663 7.663 0 0 0-2.315-.431 14.526 14.526 0 0 0-2.375.121 9.876 9.876 0 0 0-2.2.555 10.378 10.378 0 0 0-1.794.868 17.343 17.343 0 0 0-3.229 2.201q-1.455 1.262-2.893 2.6c.191-.733.42-1.5.692-2.284a6.158 6.158 0 0 0 .346-2.284 2.75 2.75 0 0 0-.4-.945 5.487 5.487 0 0 0-.532-.707c.057 0-.267.012-.976.04s-1.53.055-2.465.082-1.857.069-2.759.121-1.554.08-1.953.081c-.457 0-.664.04-.618.12a4.343 4.343 0 0 1 .156.984c.083.682.182 1.311.3 1.889a2.394 2.394 0 0 1-.333 1.733c-.181.525-.377 1.024-.594 1.5s-.421.947-.609 1.418q-2.527 5.671-5.126 11.188c-1.315 2.787-2.673 5.6-4.029 8.421-.6.655-1.219 1.3-1.875 1.9a2.6 2.6 0 0 1-2.358.831q-1.124-.273-1.269-2.244a24.737 24.737 0 0 1 1.339-6.458q1.085-3.072 2.452-6.027t2.82-5.908a36.29 36.29 0 0 0 2.352-6.109 2.451 2.451 0 0 0 .184-.983 7.58 7.58 0 0 1 .086-1.063 7.181 7.181 0 0 0 .03-1.1h-1.71q-1.458 0-3.521.16c-1.376.109-2.518.187-3.42.24a15.033 15.033 0 0 0-.685 1.891 21.369 21.369 0 0 0-.59 2.363 43.53 43.53 0 0 1-2.065 6.46 62.39 62.39 0 0 1-2.9 6.146q-1.492 2.757-3.124 5.672a23.949 23.949 0 0 1-3.91 5.2c-.234.263-.523.578-.877.947a5.087 5.087 0 0 1-1.262.946 4.67 4.67 0 0 1-1.523.514 1.913 1.913 0 0 1-1.5-.432 2.114 2.114 0 0 1-.842-2.243 13.711 13.711 0 0 1 .613-2.244q1.343-3.073 2.787-6.068t2.688-6.144a64.652 64.652 0 0 0 2.554-6.382 13.766 13.766 0 0 0 .857-2.718 6.28 6.28 0 0 0-.045-2.952q-.049-.235-.127-.631a.728.728 0 0 0-.455-.549h-2.013q-1.242 0-2.475.04c-.82.03-1.543.057-2.166.083s-1.02.04-1.19.039a1.094 1.094 0 0 0-.37.71 5.035 5.035 0 0 0-.057.986l.037 1.022c.012.341.011.619 0 .828-.207.944-.442 1.826-.7 2.637a23.1 23.1 0 0 1-.923 2.4q-1.343 3.075-2.722 6.185t-2.737 6.106c-.051.136-.1.282-.149.422-1.818 3.927-5.929 8.918-12.058 8.011a120.793 120.793 0 0 1-13.966-3.676 14.416 14.416 0 0 0 3.966-4.408c1.631-2.585 7.971-27.655 17.862-41.285.656-.988 8.151-9.749 13.385-12.073-.435-.026-.869-.048-1.308-.037a15.567 15.567 0 0 0-3.174.4q-1.509.357-2.713.752a26.923 26.923 0 0 0-6.07 3.2 37.807 37.807 0 0 0-5.006 4.219 48.563 48.563 0 0 0-8.518 11.153c-2.252 4.071-8.749 19.137-9.286 20.559-1.828 5.192-4.946 13.449-7.37 15.387-3.441-.586-7.24-1.518-8.832-1.778s-12.986-2.418-16.743 3.565c-.636 1.012-1.593 7.752 10.485 8.806a28.387 28.387 0 0 0 14.945-2.933q.775-.392 1.467-.789a2.446 2.446 0 0 1 1.369-.579c.943.3 9.237 3.048 10.685 3.439a44.531 44.531 0 0 0 4.352.977c9.57 1.579 13.618-2.161 15.416-5.639.017.141.023.282.047.422a6.822 6.822 0 0 0 1.1 2.68 5.915 5.915 0 0 0 2.148 1.925 6.312 6.312 0 0 0 2.445.663 7.106 7.106 0 0 0 2.471-.275 10.174 10.174 0 0 0 2.284-.989 15.947 15.947 0 0 0 4.6-4.1q1.924-2.522 3.755-4.886-.03 1.1-.061 2.636a12.238 12.238 0 0 0 .309 2.993 6.142 6.142 0 0 0 1.3 2.6 4.846 4.846 0 0 0 2.839 1.532 6.566 6.566 0 0 0 4.232-.438 14.783 14.783 0 0 0 2.063-1.212c-.026.074-.059.158-.082.223-.214.631-.194 1.064.054 1.3a2.493 2.493 0 0 0 1.611.351h3.726a5.091 5.091 0 0 1 1.375.036 1.745 1.745 0 0 0 1.331-.2 3.37 3.37 0 0 0 .535-.945 7.076 7.076 0 0 0 .347-1.023q2.131-4.258 4.313-8.472t4.31-8.469c.327-.632.658-1.248.99-1.853a13.225 13.225 0 0 1 1.181-1.773q1.537-2.127 3.348-4.374a11.8 11.8 0 0 1 4.482-3.43q.635-.238 1.385-.555a1.72 1.72 0 0 1 1.513.076 1.478 1.478 0 0 1 .843 1.416 3.893 3.893 0 0 1-.318 1.576 14.766 14.766 0 0 1-.779 1.853c-.308.6-.629 1.195-.968 1.772q-.989 2.288-2.192 4.57t-2.281 4.57c-.448.894-.942 1.892-1.49 2.994a22.235 22.235 0 0 0-1.354 3.427 10.738 10.738 0 0 0-.468 3.584 6.569 6.569 0 0 0 1.176 3.463 5.424 5.424 0 0 0 2.35 2.084 6.328 6.328 0 0 0 2.885.507 16.678 16.678 0 0 0 6.308-2.252 22.282 22.282 0 0 0 4.831-4.02c.371-.415.71-.86 1.066-1.292a9.62 9.62 0 0 0 1.616 3.531 8.482 8.482 0 0 0 3.345 2.752 10.593 10.593 0 0 0 3.956.94 14 14 0 0 0 4.023-.438 12.956 12.956 0 0 0 3.441-1.381 16.566 16.566 0 0 0 2.5-1.816q1.5-1.26 3.217-2.916t3.413-3.626c.857-1 1.643-1.974 2.393-2.939a20.122 20.122 0 0 0-.948 4.158 12.422 12.422 0 0 0 .287 4.133 6.319 6.319 0 0 0 3.412 3.934 9.059 9.059 0 0 0 5.253.779 18.878 18.878 0 0 0 5.277-2.683 37.584 37.584 0 0 0 4.815-4.1 40 40 0 0 0 4.142-4.887c.4-.567.77-1.11 1.146-1.66a20.552 20.552 0 0 0-1.048 4.455 12.388 12.388 0 0 0 .288 4.134 6.307 6.307 0 0 0 3.407 3.934 9.061 9.061 0 0 0 5.254.78 18.859 18.859 0 0 0 5.274-2.684 37.166 37.166 0 0 0 4.074-3.413 9.856 9.856 0 0 0 1.3 2.461 8.474 8.474 0 0 0 3.345 2.752 10.6 10.6 0 0 0 3.959.942 14.017 14.017 0 0 0 4.022-.439c.338-.088.633-.205.95-.308h.017c.032-.011.061-.024.092-.037a12.2 12.2 0 0 0 2.383-1.04c.02-.008.043-.026.065-.037 5.659-2.83 8.417-6.759 10.608-9.78q3.746-5.158 7.292-10.441 1.046-1.576 2.034-3.035t2.14-2.955c-.062 3.621-.642 7.17-.707 11.024a42.321 42.321 0 0 0 .624 10.033c.275 1.747 1.744 5.035-.633 8.522a21.5 21.5 0 0 1-4.278 3.562 28.434 28.434 0 0 1-13.651 4.023c-2.789.171-180.834-.814-180.834-.814l51.563 9.09s127.423-5.385 130.393-5.668c5.878-.568 11.7-2.247 15.126-4.685 3.449-2.429 5.123-5.482 6.546-8.078a32.622 32.622 0 0 0 2.152-6.915c.106-.468.2-.913.279-1.333l.162-.818h-.009c.018-.106.039-.217.055-.319a63.547 63.547 0 0 0 .728-6.368q.2-3.227.3-6.536l.015.078q.028-1.967.055-4.135a25.339 25.339 0 0 1 .347-3.978l.614-1.182q.3-.63.523-1.219a2.825 2.825 0 0 0 .178-1.222zM425.4 266.477a31.352 31.352 0 0 1 3.476-5c.09-.1.3-.356.617-.75a14.571 14.571 0 0 1 1.121-1.223 15.043 15.043 0 0 1 1.42-1.222 6.191 6.191 0 0 1 1.493-.868 1.959 1.959 0 0 1 1.26-.12q.546.157.807 1.023a3.942 3.942 0 0 1-.127 2.323q-.419 1.3-.757 2.168a11.741 11.741 0 0 1-1.329 2.088 16.644 16.644 0 0 1-1.721 1.853 39.074 39.074 0 0 1-3.974 3.39 9.132 9.132 0 0 1-5.084 1.739q1.318-2.761 2.798-5.401zm-68.225.085a31.506 31.506 0 0 1 3.474-5.005c.094-.1.3-.354.618-.748a14.666 14.666 0 0 1 1.122-1.221 14.417 14.417 0 0 1 1.422-1.222 6.16 6.16 0 0 1 1.493-.869 1.963 1.963 0 0 1 1.26-.118c.363.1.634.444.808 1.021a3.942 3.942 0 0 1-.128 2.323c-.281.867-.53 1.59-.756 2.168a11.5 11.5 0 0 1-1.332 2.088 16.3 16.3 0 0 1-1.719 1.854 39.1 39.1 0 0 1-3.975 3.391 9.111 9.111 0 0 1-5.082 1.738q1.315-2.762 2.79-5.4zm-123.811 19.367a17.72 17.72 0 0 1-5.271 1.227c-.62.053-1.254.081-1.908.083a12.963 12.963 0 0 1-2-.155 6.19 6.19 0 0 1-1.878-.591 3.936 3.936 0 0 1-1.609-1.349 2.474 2.474 0 0 1 .7-3.137 4.559 4.559 0 0 1 1.631-.827 14.877 14.877 0 0 1 1.786-.477 17.09 17.09 0 0 1 6.38.427 50.372 50.372 0 0 1 6.275 2 11.41 11.41 0 0 1-4.106 2.799zm162.725-12.84q-1.336 2.049-2.822 4.216t-2.983 4.061a36.076 36.076 0 0 1-2.853 3.23 7.075 7.075 0 0 1-2.472 1.736 4.345 4.345 0 0 1-3.4-.113 2.528 2.528 0 0 1-1.385-2.8 37.708 37.708 0 0 1 1.823-7.641q1.419-4.173 3.3-8.625t4.024-8.825q2.149-4.374 4.118-8.154l7.275-.01 6.676-.008-3.1 6.619q-3.144 6.791-5.205 11.422c-.2.347-.42.719-.664 1.145q-.997 1.699-2.332 3.747zm12.159 48.745l-.263 1.555c-.565 3.373-2.383 5.069-5.715 5.069a16.142 16.142 0 0 1-3.978-.525c-.364-.1-.465-.2-.465-.384a.5.5 0 0 1 .02-.161l2.484-14.056a.494.494 0 0 1 .465-.4h1.858a.329.329 0 0 1 .343.343v.06l-.646 3.574a16.111 16.111 0 0 1 1.979-.141c2.767 0 4.019 1.555 4.019 3.837a6.588 6.588 0 0 1-.101 1.229zm-4.3-2.888a17.869 17.869 0 0 0-1.979.141l-1.232 7.048a11.3 11.3 0 0 0 1.918.141c1.737 0 2.4-1.373 2.666-2.888l.263-1.555a6.8 6.8 0 0 0 .121-1.191c-.005-1.09-.446-1.696-1.758-1.696zm16.782-1.575l-5.453 11.794c-1.01 2.2-1.918 3.171-4.665 3.171a8.882 8.882 0 0 1-2.1-.263c-.2-.061-.364-.121-.364-.283v-.061l.222-1.292a.458.458 0 0 1 .464-.363h.04c.565.02 1.7.121 2.262.121.868 0 1.293-.242 1.757-1.292l.263-.606h-.222c-.586 0-1.272-.121-1.454-1.676l-1.03-9.249v-.061c0-.242.141-.4.444-.4h1.959c.182 0 .3.182.323.364l.606 8.219c.02.343.081.444.2.444h.182l3.7-8.684a.551.551 0 0 1 .465-.343h2.141a.282.282 0 0 1 .3.283.59.59 0 0 1-.041.177zm14.338 9.088l-.222 1.292c-.04.283-.182.364-.485.424a22.721 22.721 0 0 1-3.473.283c-1.8 0-4-.606-4-3.191a5.344 5.344 0 0 1 .06-.949l1.858-10.623a.516.516 0 0 1 .485-.4h2a.307.307 0 0 1 .323.323v.081l-1.858 10.623a4.522 4.522 0 0 0-.061.687c0 .788.384 1.05 1.333 1.05h3.716a.307.307 0 0 1 .323.323zm12.137-8.623l-1.757 10.057a.516.516 0 0 1-.485.4h-1.616a.3.3 0 0 1-.323-.343v-.061l.081-.586a4.938 4.938 0 0 1-3.13 1.151c-1.858 0-3.312-1.252-3.312-3.655a6.388 6.388 0 0 1 .1-1.212s.162-1.01.3-1.757c.566-3.15 2.484-5.069 5.735-5.069a15.988 15.988 0 0 1 3.958.525c.3.081.464.141.464.384a.444.444 0 0 1-.02.165zm-4.786 1.111c-1.737 0-2.4 1.232-2.686 2.888l-.363 2.08a4.233 4.233 0 0 0-.081.828c0 1.151.606 1.535 1.394 1.535a5.271 5.271 0 0 0 2.524-.848l1.111-6.341a11.032 11.032 0 0 0-1.9-.143zm13.187-1.777l-.263 1.454a.494.494 0 0 1-.464.4 5.924 5.924 0 0 0-2.908.727l-1.434 8.118a.535.535 0 0 1-.484.424h-1.858a.324.324 0 0 1-.323-.343v-.081l1.858-10.562a.494.494 0 0 1 .465-.4h1.757a.329.329 0 0 1 .343.343v.061l-.081.424a4.637 4.637 0 0 1 3.07-.969.307.307 0 0 1 .323.323zm4.423.141l-1.858 10.562a.535.535 0 0 1-.485.424h-1.858a.324.324 0 0 1-.323-.343v-.081l1.858-10.562a.494.494 0 0 1 .464-.4h1.858a.329.329 0 0 1 .343.343zm.788-4.1l-.323 1.777a.494.494 0 0 1-.464.4h-1.959a.345.345 0 0 1-.363-.343v-.061l.323-1.777a.516.516 0 0 1 .485-.4h1.959a.329.329 0 0 1 .343.343z" data-name="Logo Lunettes" transform="translate(-215.55 -223.969)" style="fill:#fff"/>
</svg>
