<svg xmlns="http://www.w3.org/2000/svg" width="72.626" height="72.953" viewBox="0 0 72.626 72.953">
    <g data-name="Group 82">
        <path d="M1070.963 82.2a36.165 36.165 0 0 0-56.914 43.618l-5.13 18.733 19.169-5.027a36.149 36.149 0 0 0 17.281 4.4h.015a36.164 36.164 0 0 0 25.579-61.724zm-25.58 55.619h-.012a30.009 30.009 0 0 1-15.3-4.188l-1.1-.651-11.375 2.983 3.037-11.088-.714-1.137a30.057 30.057 0 1 1 25.461 14.08z" data-name="Path 72" transform="translate(-1008.918 -71.598)"/>
        <path d="M1061.869 115.315c-.9-.452-5.345-2.638-6.174-2.938s-1.431-.453-2.033.452-2.334 2.939-2.861 3.542-1.055.678-1.957.226a24.7 24.7 0 0 1-7.266-4.483 27.232 27.232 0 0 1-5.026-6.257c-.527-.9 0-1.347.4-1.844a25.751 25.751 0 0 0 2.259-3.089 1.666 1.666 0 0 0-.075-1.583c-.226-.452-2.033-4.9-2.786-6.706-.733-1.762-1.478-1.523-2.033-1.551-.527-.026-1.13-.031-1.731-.031a3.321 3.321 0 0 0-2.41 1.13 10.128 10.128 0 0 0-3.162 7.535c0 4.446 3.238 8.742 3.69 9.345s6.371 9.726 15.435 13.639a52.216 52.216 0 0 0 5.152 1.9 12.4 12.4 0 0 0 5.691.358c1.736-.26 5.345-2.186 6.1-4.3a7.535 7.535 0 0 0 .526-4.3c-.233-.366-.835-.592-1.739-1.045z" data-name="Path 73" transform="translate(-1008.918 -71.598)"/>
    </g>
</svg>
