<svg xmlns="http://www.w3.org/2000/svg" id="prefix__Group_29" width="50.25" height="50.25" data-name="Group 29" viewBox="0 0 50.25 50.25">
    <defs>
        <style>
            .prefix__cls-1{fill:#fff}
        </style>
    </defs>
    <path id="prefix__Path_15" d="M851.125-58A25.128 25.128 0 0 0 826-32.875 25.128 25.128 0 0 0 851.125-7.75a25.128 25.128 0 0 0 25.125-25.125A25.128 25.128 0 0 0 851.125-58zm.532 39.753h-.006a15.032 15.032 0 0 1-7.186-1.83l-7.972 2.091 2.133-7.79a15 15 0 0 1-2.007-7.515 15.056 15.056 0 0 1 15.038-15.032 14.942 14.942 0 0 1 10.637 4.408 14.94 14.94 0 0 1 4.4 10.635 15.057 15.057 0 0 1-15.037 15.033z" class="prefix__cls-1" data-name="Path 15" transform="translate(-826 58)"/>
    <path id="prefix__Path_16" d="M972.574 66.469a12.5 12.5 0 0 0-10.593 19.143l.3.473-1.266 4.615 4.731-1.241.457.271a12.48 12.48 0 0 0 6.361 1.742h.005a12.5 12.5 0 0 0 .005-25zm7.352 17.866a3.872 3.872 0 0 1-2.536 1.786 5.155 5.155 0 0 1-2.366-.149 21.7 21.7 0 0 1-2.142-.791 16.748 16.748 0 0 1-6.419-5.672 7.307 7.307 0 0 1-1.534-3.886 4.212 4.212 0 0 1 1.315-3.133 1.381 1.381 0 0 1 1-.47c.25 0 .5 0 .72.013s.541-.088.845.645c.313.752 1.065 2.6 1.159 2.789a.693.693 0 0 1 .031.658 10.705 10.705 0 0 1-.939 1.285c-.167.207-.384.391-.165.767a11.326 11.326 0 0 0 2.09 2.6 10.27 10.27 0 0 0 3.022 1.864c.375.188.595.156.814-.094s.939-1.1 1.19-1.473.5-.313.845-.188 2.192 1.034 2.567 1.222.626.282.72.439a3.135 3.135 0 0 1-.217 1.788z" class="prefix__cls-1" data-name="Path 16" transform="translate(-946.912 -54.253)"/>
</svg>
