<svg xmlns="http://www.w3.org/2000/svg" width="150" height="57.717" viewBox="0 0 150 57.717">
    <path id="prefix__Path_46" d="M-3717.961 2187.495c-.134-1.7-.958-2.087-.958-2.087l-.983-.574c-1.3-.511-3.269-3.907-3.269-3.907a24.24 24.24 0 0 0-11.49-9.192c-6.549-2.8-16.469-2.834-16.469-2.834-2.761-.182-14.759.46-14.759.46-4.889.543-25.488.931-26.842.956-1.355-.025-21.957-.413-26.847-.956 0 0-12-.641-14.761-.46 0 0-9.922.038-16.472 2.834a24.244 24.244 0 0 0-11.492 9.192s-1.967 3.4-3.269 3.907l-.983.574s-.824.383-.958 2.087c0 0-.326 4.979-.191 6.2 0 0 .022.174.06.4a4.127 4.127 0 0 0 .567 1.518 2.734 2.734 0 0 0 .168.245l.431.508v.006a7.1 7.1 0 0 1 .755 1.374 23.1 23.1 0 0 1 .869 2.421l.383 1.379s1.679 6.543 3.85 10.041a27.458 27.458 0 0 0 5.388 7.482s6.538 7.532 19.46 7.481a30.859 30.859 0 0 0 26.636-14.3 76.051 76.051 0 0 0 8.964-21.372s.958-3.888 1.839-5.152a5.078 5.078 0 0 1 2.948-2.582c.055-.014.11-.028.165-.044a8.56 8.56 0 0 1 2.415-.268h.141a8.557 8.557 0 0 1 2.414.268c.054.016.11.03.165.044a5.079 5.079 0 0 1 2.948 2.582c.881 1.264 1.838 5.152 1.838 5.152a76.054 76.054 0 0 0 8.963 21.372 30.852 30.852 0 0 0 26.632 14.3c12.92.051 19.457-7.481 19.457-7.481a27.453 27.453 0 0 0 5.388-7.482c2.171-3.5 3.849-10.041 3.849-10.041l.383-1.379a23.1 23.1 0 0 1 .869-2.421 7.1 7.1 0 0 1 .755-1.374v-.006l.431-.508a2.734 2.734 0 0 0 .168-.245 4.126 4.126 0 0 0 .567-1.518c.037-.227.06-.4.06-.4.142-1.221-.183-6.2-.183-6.2zm-117.24 36.08c-16.075 0-24.83-12.442-25.8-27.213-.766-17.657 10.011-23.734 26.849-24.2 15.392.157 29.642 2.251 30.459 14.6 0 16.078-11.901 36.475-31.507 36.813zm50.251-42.017a12.59 12.59 0 0 0-7.781-2.628 12.593 12.593 0 0 0-7.782 2.628.686.686 0 0 1-1.085-.057 23.645 23.645 0 0 0-3.512-5.189 13.638 13.638 0 0 0-2.375-2.088.553.553 0 0 1-.294-.485.518.518 0 0 1 .121-.37s.1-.249.613-.236c0 0 11.277.283 14.314.212 3.036.071 14.311-.212 14.311-.212.517-.013.613.236.613.236a.519.519 0 0 1 .121.37.553.553 0 0 1-.293.485 13.642 13.642 0 0 0-2.375 2.088 23.644 23.644 0 0 0-3.511 5.189.686.686 0 0 1-1.085.057zm60.478 14.8c-.97 14.771-9.723 27.213-25.8 27.213-19.6-.338-31.5-20.735-31.5-36.808.817-12.352 15.065-14.446 30.455-14.6 16.835.464 27.61 6.537 26.844 24.199z" data-name="Path 46" transform="translate(3867.738 -2168.867)" style="fill:#9a9a9a"/>
</svg>
