<svg xmlns="http://www.w3.org/2000/svg" id="prefix__Group_79" width="150" height="49.137" data-name="Group 79" viewBox="0 0 150 49.137">
    <defs>
        <style>
            .prefix__cls-2{fill:none;stroke:#9a9a9a;stroke-linecap:round}
        </style>
    </defs>
    <path id="prefix__Path_50" d="M1974.888 4694.01a1.886 1.886 0 0 0-1.072-1.957l-2.57-.443c-19.133-1.584-40.758 0-40.758 0-13 .7-15.235 1.84-15.235 1.84a12.454 12.454 0 0 0-3.354 2.259 13.64 13.64 0 0 1-3.727 2.423c-2.334 1.008-6.192 1.094-7.916 1.077v-.021s-.162.007-.441.014-.441-.014-.441-.014v.021c-1.722.017-5.57-.07-7.9-1.077a13.609 13.609 0 0 1-3.72-2.423 12.43 12.43 0 0 0-3.348-2.259s-2.232-1.142-15.205-1.84c0 0-21.583-1.584-40.678 0l-2.565.443a1.886 1.886 0 0 0-1.069 1.957l.233 5.078a1.528 1.528 0 0 0 .674 1.257 8.166 8.166 0 0 1 2.418 2.376 9.459 9.459 0 0 1 1.372 3.914s1.232 7.711 2.3 12c0 0 1.813 8.293 4.045 11.833a12.78 12.78 0 0 0 6.975 6.274s7.06 3.324 19.665 3.276c0 0 10.373.653 16.837-4.565a23.864 23.864 0 0 0 6.463-8.666 84.638 84.638 0 0 0 3.72-9.551l1.736-5.374s.9-3.106 2.263-3.944c0 0 1.4-1.465 6.224-1.521 4.83.057 6.237 1.521 6.237 1.521 1.367.838 2.267 3.944 2.267 3.944l1.74 5.374a84.487 84.487 0 0 0 3.727 9.551 23.87 23.87 0 0 0 6.476 8.666c6.476 5.218 16.87 4.565 16.87 4.565 12.63.047 19.7-3.276 19.7-3.276a12.792 12.792 0 0 0 6.989-6.274c2.236-3.541 4.053-11.833 4.053-11.833 1.072-4.286 2.306-12 2.306-12a9.446 9.446 0 0 1 1.375-3.914 8.173 8.173 0 0 1 2.423-2.376 1.528 1.528 0 0 0 .676-1.257zm-98.037 40.23c-3.225 2.195-7.836 3.02-12.3 3.324a55.884 55.884 0 0 1-11.957-.476c-6.295-.93-10.825-2.775-14.279-8.517-3.627-6.46-4.7-15.326-5.208-23.124-1.457-14.068 12.741-12.129 28.023-11.74 15.3 1.353 26.621 2 26.923 15.234-.228 8.992-5.11 21.385-11.202 25.299zm89.8-28.792c-.514 7.8-1.584 16.664-5.218 23.124-3.462 5.741-8 7.586-14.307 8.517a56.1 56.1 0 0 1-11.981.476c-4.468-.3-9.088-1.129-12.319-3.324-6.1-3.914-11-16.307-11.228-25.3.3-13.232 11.648-13.881 26.975-15.234 15.311-.389 29.536-2.328 28.077 11.74z" data-name="Path 50" transform="translate(-1824.889 -4690.906)" style="fill:#9a9a9a"/>
    <path id="prefix__Path_57" d="M21.823 38.437L38.469 12.4" class="prefix__cls-2" data-name="Path 57" transform="translate(83)"/>
    <path id="prefix__Path_59" d="M21.823 38.437L38.469 12.4" class="prefix__cls-2" data-name="Path 59" transform="translate(2)"/>
    <path id="prefix__Path_56" d="M21.823 38.437L38.469 12.4" class="prefix__cls-2" data-name="Path 56" transform="translate(93 -1)"/>
    <path id="prefix__Path_58" d="M21.823 38.437L38.469 12.4" class="prefix__cls-2" data-name="Path 58" transform="translate(12 -1)"/>
</svg>
