<svg xmlns="http://www.w3.org/2000/svg" width="159.667" height="49.548" viewBox="0 0 159.667 49.548">
    <path id="prefix__Path_48" d="M-3607.8 7340.7c.429-10.113-22.348-8.157-22.348-8.157-22.038-.358-47.582 11.209-47.582 11.209-3.6 1.937-9.468 2.09-9.857 2.1-.389-.008-6.266-.162-9.865-2.1 0 0-25.564-11.567-47.62-11.209 0 0-22.8-1.956-22.366 8.157 0 0-1.122 17.745 16.709 32.2 0 0 11.458 9.588 25.636 9.016 0 0 15.969.429 24.777-11.019a79.428 79.428 0 0 0 6.874-13.73s.437-3.528 5.855-3.68c5.414.152 5.85 3.68 5.85 3.68a79.464 79.464 0 0 0 6.869 13.73c8.8 11.448 24.757 11.019 24.757 11.019 14.167.572 25.616-9.016 25.616-9.016 17.821-14.458 16.695-32.2 16.695-32.2zm-90.727 14.311c-.358 11.95-8.583 23.326-26.854 23.326s-32.773-13.132-32.773-31.388c-.31-11.687 12.078-11.33 29.42-9.326 15.747 3.217 30.427 8.011 30.212 17.384zm81.449-8.062c0 18.256-14.491 31.388-32.747 31.388s-26.474-11.376-26.832-23.326c-.215-9.373 14.453-14.167 30.183-17.387 17.332-2.008 29.711-2.365 29.401 9.322z" data-name="Path 48" transform="translate(3767.448 -7332.388)" style="fill:#9a9a9a"/>
</svg>
