<svg xmlns="http://www.w3.org/2000/svg" width="154.158" height="51.276" viewBox="0 0 154.158 51.276">
    <path id="prefix__Path_68" d="M-3701.537 5086.337c-.052-.808-.454-.785-.454-.785l-.973-.176a17.448 17.448 0 0 1-3.011-.82 13.7 13.7 0 0 1-3.569-2.134 54.579 54.579 0 0 0-6.451-4.571c-8.1-5.58-19-5.345-19-5.345a46.315 46.315 0 0 0-19.417 3.61 52.665 52.665 0 0 0-14.569 9.963l-.642.457a5.4 5.4 0 0 1-2.3.633c-1.415.211-6.892.141-6.892.141v.01c-.448.005-5.455.061-6.793-.141a5.309 5.309 0 0 1-2.275-.633l-.636-.457a52.165 52.165 0 0 0-14.43-9.963 45.508 45.508 0 0 0-19.231-3.611s-10.8-.234-18.82 5.345a54.005 54.005 0 0 0-6.389 4.572 13.534 13.534 0 0 1-3.535 2.133 17.144 17.144 0 0 1-2.982.821l-.964.176s-.4-.023-.45.786l-.186 6.582v.223s.039.281.546.457a16.5 16.5 0 0 1 1.555.557s1.478.4 2.892 2.848c0 0 2.854 7.291 3.6 8.885a26.756 26.756 0 0 0 6.89 9.588 32.32 32.32 0 0 0 22.879 8.229 34.025 34.025 0 0 0 16.92-4.361 28.852 28.852 0 0 0 11.184-12.847 57.741 57.741 0 0 0 2.6-7.432s.643-3 1.9-3.985a6.027 6.027 0 0 1 2.789-1.389s1.3-.166 2.97-.211v-.009c1.671.046 2.966.21 2.966.21a6.114 6.114 0 0 1 2.817 1.389c1.272.984 1.921 3.985 1.921 3.985a57.379 57.379 0 0 0 2.622 7.432c3.478 8.44 11.292 12.847 11.292 12.847a34.63 34.63 0 0 0 17.083 4.36 32.787 32.787 0 0 0 23.1-8.229 26.752 26.752 0 0 0 6.957-9.588c.753-1.594 3.634-8.885 3.634-8.885 1.428-2.45 2.92-2.848 2.92-2.848.506-.235 1.57-.557 1.57-.557.513-.176.552-.457.552-.457v-.223zm-88.814 12.13c-.514 13.339-12.682 23.233-28.23 23.233-15.58-.375-28.487-12-27.406-28.529.822-12.029 12.8-18.265 27.509-17.8 16.866 1.036 28.59 9.944 28.127 23.096zm51.72 23.223c-15.7 0-27.983-9.893-28.5-23.233-.467-13.151 11.37-22.06 28.4-23.091 14.848-.469 26.945 5.767 27.774 17.795 1.087 16.526-11.943 28.154-27.674 28.529z" data-name="Path 68" transform="translate(3855.507 -5072.475)" style="fill:#9a9a9a"/>
</svg>
