<svg xmlns="http://www.w3.org/2000/svg" width="150" height="49.137" viewBox="0 0 150 49.137">
    <path id="prefix__Path_47" d="M-3621.992 3119.372a1.887 1.887 0 0 0-1.072-1.957l-2.57-.442c-19.133-1.584-40.758 0-40.758 0-13 .7-15.235 1.84-15.235 1.84a12.44 12.44 0 0 0-3.355 2.26 13.615 13.615 0 0 1-3.727 2.423c-2.334 1.008-6.192 1.094-7.916 1.077v-.021s-.162.007-.44.014-.441-.014-.441-.014v.021c-1.722.017-5.57-.07-7.9-1.077a13.586 13.586 0 0 1-3.72-2.423 12.417 12.417 0 0 0-3.348-2.26s-2.232-1.141-15.205-1.84c0 0-21.583-1.584-40.678 0l-2.565.442a1.887 1.887 0 0 0-1.069 1.957l.232 5.078a1.531 1.531 0 0 0 .674 1.258 8.16 8.16 0 0 1 2.418 2.376 9.454 9.454 0 0 1 1.367 3.916s1.232 7.711 2.3 12c0 0 1.813 8.293 4.045 11.834a12.777 12.777 0 0 0 6.975 6.274s7.06 3.323 19.665 3.277c0 0 10.373.652 16.836-4.566a23.865 23.865 0 0 0 6.463-8.666 84.61 84.61 0 0 0 3.72-9.551l1.736-5.373s.9-3.106 2.263-3.945c0 0 1.4-1.464 6.224-1.521 4.83.057 6.237 1.521 6.237 1.521 1.367.839 2.267 3.945 2.267 3.945l1.74 5.373a84.5 84.5 0 0 0 3.727 9.551 23.874 23.874 0 0 0 6.476 8.666c6.476 5.218 16.87 4.566 16.87 4.566 12.63.047 19.7-3.277 19.7-3.277a12.791 12.791 0 0 0 6.989-6.274c2.236-3.541 4.053-11.834 4.053-11.834 1.072-4.286 2.306-12 2.306-12a9.446 9.446 0 0 1 1.374-3.914 8.17 8.17 0 0 1 2.423-2.376 1.529 1.529 0 0 0 .676-1.258zm-98.037 40.23c-3.225 2.2-7.836 3.02-12.3 3.324a55.869 55.869 0 0 1-11.957-.476c-6.295-.93-10.825-2.775-14.28-8.516-3.627-6.46-4.7-15.327-5.208-23.124-1.457-14.068 12.741-12.129 28.023-11.74 15.3 1.354 26.621 2 26.923 15.235-.228 8.995-5.11 21.384-11.202 25.295zm89.8-28.793c-.514 7.8-1.584 16.664-5.218 23.124-3.461 5.741-8 7.586-14.307 8.516a56.088 56.088 0 0 1-11.981.476c-4.468-.3-9.088-1.128-12.319-3.324-6.1-3.913-11-16.306-11.228-25.3.3-13.231 11.648-13.881 26.976-15.235 15.306-.385 29.535-2.324 28.075 11.744z" data-name="Path 47" transform="translate(3771.992 -3116.269)" style="fill:#9a9a9a"/>
</svg>
