<svg xmlns="http://www.w3.org/2000/svg" width="150" height="56.648" viewBox="0 0 150 56.648">
    <path id="prefix__Path_67" d="M-3738.933 5803.926c-.262-.893-1.47-.889-1.884-.86h-7.114a27.661 27.661 0 0 0-6.935-13.057c-5.236-5.45-12.4-8.34-20.721-8.357-6.8.069-13.858 3.112-19.366 8.349a28.494 28.494 0 0 0-8.578 15.154 8.33 8.33 0 0 0-3.016-1.559 11.134 11.134 0 0 0-3.545-.664h-.007l-2.494-.057v-.06l-1.321.03-1.321-.03v.06l-2.493.057a11.153 11.153 0 0 0-3.551.664 8.324 8.324 0 0 0-3.015 1.559 28.5 28.5 0 0 0-8.575-15.154 29.157 29.157 0 0 0-19.37-8.349c-8.312.017-15.472 2.907-20.707 8.357a27.665 27.665 0 0 0-6.933 13.057h-7.111c-.414-.029-1.622-.033-1.884.86l-.029.1v2.401c.016.22.209 1.318 2.409 1.417l1.655.074 4.23.383c-.033.6-.05 1.19-.05 1.772a25.225 25.225 0 0 0 2.595 11.04 30.639 30.639 0 0 0 6.631 8.951c5.468 5.157 12.478 8.236 18.754 8.236.156 0 .313 0 .451-.006a28.526 28.526 0 0 0 20-7.789 26.705 26.705 0 0 0 5.661-7.977 29.539 29.539 0 0 0 2.508-8.828 2.012 2.012 0 0 0 .214.02 1.157 1.157 0 0 0 .817-.2 2.523 2.523 0 0 0 .828-2.04v-.039l-.1-2.333v-.048a2.939 2.939 0 0 1 .2-1.672l.032-.025a7.2 7.2 0 0 1 4.489-1.275h7.346a7.168 7.168 0 0 1 4.487 1.272l.034.028a2.961 2.961 0 0 1 .2 1.672l-.105 2.381v.039a2.523 2.523 0 0 0 .828 2.04 1.161 1.161 0 0 0 .818.2 2.017 2.017 0 0 0 .214-.02 29.522 29.522 0 0 0 2.509 8.828 26.71 26.71 0 0 0 5.662 7.977 28.538 28.538 0 0 0 20 7.789c.139 0 .295.006.451.006 6.277 0 13.29-3.079 18.759-8.236a30.624 30.624 0 0 0 6.633-8.951 25.218 25.218 0 0 0 2.6-11.04c0-.583-.017-1.176-.05-1.772l4.232-.383 1.655-.074c2.2-.1 2.393-1.2 2.409-1.417v-2.4zm-130.59 24.044c-5.347-5.071-8.292-11.427-8.292-17.9 0-14.792 10.755-25.549 25.564-25.579 5.945.061 12.422 2.833 17.325 7.415a24.829 24.829 0 0 1 8.268 18.146 25.84 25.84 0 0 1-7.366 18.225 25.588 25.588 0 0 1-18.231 7.172h-.018c-5.708.151-12.158-2.649-17.249-7.479zm111.233 0c-5.093 4.828-11.545 7.629-17.257 7.483h-.018a25.6 25.6 0 0 1-18.236-7.172 25.827 25.827 0 0 1-7.368-18.216 24.829 24.829 0 0 1 8.271-18.155c4.9-4.583 11.384-7.354 17.322-7.415 14.823.03 25.581 10.788 25.581 25.579.001 6.469-2.945 12.826-8.294 17.896z" data-name="Path 67" transform="translate(3888.903 -5781.653)" style="fill:#9a9a9a"/>
</svg>
