<svg xmlns="http://www.w3.org/2000/svg" width="150" height="39.049" viewBox="0 0 150 39.049">
    <path id="prefix__Path_69" d="M-3635.1 6810.592l-18.2-1.149s-16.091-.383-24.184.335c0 0-13.7 1.342-17.192 1.772a54.6 54.6 0 0 1-7.567.766l-6.034.127-6.027-.127a54.476 54.476 0 0 1-7.558-.766c-3.492-.431-17.173-1.772-17.173-1.772-8.084-.718-24.157-.335-24.157-.335l-18.177 1.149c-1.89.192-1.865 1.021-1.865 1.021v8.6l.159.239.638.511 1.77 1.819c1.148 1.006 1.882 5.2 1.882 5.2l1.937 8.771c1.267 4.909 2.463 6.3 2.463 6.3 1.364 2.25 4.736 2.873 4.736 2.873 9.472 2.778 23.344 2.442 23.344 2.442a90.78 90.78 0 0 0 19.493-1.916 8.315 8.315 0 0 0 4.975-3.855c.454-.67 2.966-5.412 2.966-5.412 1.921-4 4.568-12.044 4.568-12.044a7.847 7.847 0 0 1 1.228-2.139c.861-1.325 4.8-1.189 4.8-1.189s3.943-.136 4.8 1.189a7.84 7.84 0 0 1 1.229 2.139s2.65 8.045 4.573 12.044c0 0 2.514 4.742 2.969 5.412a8.323 8.323 0 0 0 4.981 3.855 90.984 90.984 0 0 0 19.515 1.916s13.888.335 23.37-2.442c0 0 3.376-.623 4.741-2.873 0 0 1.2-1.389 2.467-6.3l1.939-8.771s.735-4.2 1.884-5.2l1.772-1.819.639-.511.16-.239v-8.6s.027-.829-1.864-1.021zm-82.934 12.786c-.51 4.454-3.986 14.16-3.986 14.16a18.669 18.669 0 0 1-2.9 5.164c-.909 1.149-4.018 2.227-4.018 2.227-11.48 2.729-27.481 1.365-27.481 1.365a58.566 58.566 0 0 1-11-1.748c-3.3-.718-4.305-1.652-4.305-1.652a6.946 6.946 0 0 1-1.475-2.259c-1.068-1.932-2.328-8.971-2.328-8.971-.718-3.592-.957-13.632-.957-13.632a3.354 3.354 0 0 1 .55-2.219 4.964 4.964 0 0 1 3.436-2.155c22-4.853 47.556.575 47.556.575 4.736.934 5.692 2.729 5.692 2.729 1.933 2.011 1.215 6.416 1.215 6.416zm77.091 8.285s-1.261 7.04-2.331 8.971a6.947 6.947 0 0 1-1.477 2.259s-1.006.934-4.31 1.652a58.7 58.7 0 0 1-11.015 1.748s-16.019 1.365-27.512-1.365c0 0-3.113-1.078-4.023-2.227a18.657 18.657 0 0 1-2.905-5.164s-3.48-9.706-3.991-14.16c0 0-.718-4.405 1.221-6.417 0 0 .958-1.8 5.7-2.729 0 0 25.581-5.428 47.61-.575a4.971 4.971 0 0 1 3.44 2.155 3.348 3.348 0 0 1 .551 2.219s-.24 10.042-.958 13.634z" data-name="Path 69" transform="translate(3783.233 -6809.341)" style="fill:#9a9a9a"/>
</svg>
