<svg xmlns="http://www.w3.org/2000/svg" width="150" height="59.94" viewBox="0 0 150 59.94">
    <path id="prefix__Path_99" d="M-2247.873 5718.5c-.058 0-.115 0-.173.006a28.4 28.4 0 0 0-8.092-16.145 28.426 28.426 0 0 0-20.233-8.381 28.427 28.427 0 0 0-20.233 8.381 28.4 28.4 0 0 0-8.092 16.148 2.208 2.208 0 0 0-.547-.07c-1.5 0-3.814.169-4.734 2.817a7.336 7.336 0 0 1 .332-1.075 24.72 24.72 0 0 1 1.085-2.327c.812-1.569 1.69-3.179 2.456-4.9a28.345 28.345 0 0 0 1.862-5.518 22.191 22.191 0 0 0 .449-3.006c.039-.515.068-1.007.062-1.575a11.953 11.953 0 0 0-.135-1.679 10.471 10.471 0 0 0-1.05-3.265 10.255 10.255 0 0 0-1.961-2.63 12.207 12.207 0 0 0-2.413-1.809 15.67 15.67 0 0 0-2.568-1.175 19.02 19.02 0 0 0-2.626-.723c-.442-.089-.885-.163-1.335-.222-.266-.034-.531-.062-.8-.084h-.586c-.273.022-.539.051-.8.084-.449.059-.893.133-1.335.222a19.03 19.03 0 0 0-2.626.723 15.668 15.668 0 0 0-2.568 1.175 12.2 12.2 0 0 0-2.413 1.809 10.26 10.26 0 0 0-1.961 2.63 10.465 10.465 0 0 0-1.05 3.265 11.99 11.99 0 0 0-.135 1.679c-.006.568.022 1.06.062 1.575a22.191 22.191 0 0 0 .449 3.006 28.345 28.345 0 0 0 1.862 5.518c.766 1.722 1.644 3.332 2.456 4.9a24.659 24.659 0 0 1 1.085 2.327 7.336 7.336 0 0 1 .332 1.075c-.92-2.648-3.233-2.817-4.734-2.817a2.22 2.22 0 0 0-.728.125 28.4 28.4 0 0 0-8.1-16.2 28.426 28.426 0 0 0-20.233-8.381 28.427 28.427 0 0 0-20.234 8.381 28.4 28.4 0 0 0-8.091 16.145c-.057 0-.115-.006-.172-.006-2.181 0-5.861.273-5.861 5.572s3.681 5.572 5.861 5.572a2.866 2.866 0 0 0 .729-.1 28.44 28.44 0 0 0 7.535 13.28 28.429 28.429 0 0 0 20.234 8.381 28.428 28.428 0 0 0 20.233-8.381 28.426 28.426 0 0 0 7.61-13.6 2.332 2.332 0 0 0 1.217.356 4.79 4.79 0 0 0 4.086-1.575l.014.022.094-.08.075-.068c.048-.045.094-.089.139-.135.089-.09.175-.182.257-.277a6.827 6.827 0 0 0 .46-.592 8.006 8.006 0 0 0 .74-1.324 9.632 9.632 0 0 0 .762-2.994c.01-.129.022-.258.03-.387s.014-.251.017-.4a5.988 5.988 0 0 0-.051-.873 9.752 9.752 0 0 0-.346-1.549 27.477 27.477 0 0 0-1.012-2.687c-.722-1.7-1.449-3.312-2.039-4.96a25.323 25.323 0 0 1-1.291-4.978 18.365 18.365 0 0 1-.192-2.5c0-.41.008-.846.035-1.2a7.579 7.579 0 0 1 .159-1.077 5.88 5.88 0 0 1 2.039-3.341 9.739 9.739 0 0 1 3.732-1.8 15.211 15.211 0 0 1 2.138-.4c.362-.042.724-.071 1.084-.087.5-.022 1 0 1.495 0 .359.016.722.045 1.084.087a15.2 15.2 0 0 1 2.138.4 9.739 9.739 0 0 1 3.732 1.8 5.88 5.88 0 0 1 2.039 3.341 7.579 7.579 0 0 1 .159 1.077c.028.358.038.793.035 1.2a18.365 18.365 0 0 1-.192 2.5 25.323 25.323 0 0 1-1.291 4.978c-.59 1.648-1.317 3.265-2.039 4.96a27.414 27.414 0 0 0-1.012 2.688 9.751 9.751 0 0 0-.346 1.549 6.023 6.023 0 0 0-.051.873c0 .144.011.263.017.4s.02.258.03.387a9.626 9.626 0 0 0 .762 2.994 8.005 8.005 0 0 0 .739 1.324 6.875 6.875 0 0 0 .46.592c.082.095.167.187.257.277.045.045.091.09.139.135l.075.068.094.08.014-.022a4.79 4.79 0 0 0 4.086 1.575 2.28 2.28 0 0 0 1.05-.263 28.431 28.431 0 0 0 7.588 13.507 28.429 28.429 0 0 0 20.233 8.381 28.428 28.428 0 0 0 20.233-8.381 28.434 28.434 0 0 0 7.535-13.28 2.867 2.867 0 0 0 .729.1c2.181 0 5.861-.273 5.861-5.572s-3.694-5.576-5.875-5.576zm-92.35 21.525a24.489 24.489 0 0 1-17.43 7.22 24.49 24.49 0 0 1-17.431-7.22 24.466 24.466 0 0 1-7.137-15.41c.012-.179.019-.36.019-.543a7.785 7.785 0 0 0-.1-1.236v-.241a24.49 24.49 0 0 1 7.22-17.431 24.49 24.49 0 0 1 17.431-7.22 24.489 24.489 0 0 1 17.43 7.22A24.489 24.489 0 0 1-2333 5722.6a24.49 24.49 0 0 1-7.223 17.427zm81.283 0a24.489 24.489 0 0 1-17.431 7.22 24.489 24.489 0 0 1-17.43-7.22 24.49 24.49 0 0 1-7.22-17.431 24.489 24.489 0 0 1 7.22-17.431 24.489 24.489 0 0 1 17.43-7.22 24.489 24.489 0 0 1 17.431 7.22 24.49 24.49 0 0 1 7.22 17.431v.241a7.786 7.786 0 0 0-.1 1.236c0 .184.007.365.019.543a24.467 24.467 0 0 1-7.139 15.413z" data-name="Path 99" transform="translate(2392.012 -5691.271)" style="fill:#9a9a9a"/>
</svg>
